<?xml version="1.0" encoding="utf-8"?>
<!-- Generator: Adobe Illustrator 25.2.1, SVG Export Plug-In . SVG Version: 6.00 Build 0)  -->
<svg version="1.1" id="Слой_1" xmlns="http://www.w3.org/2000/svg" xmlns:xlink="http://www.w3.org/1999/xlink" x="0px" y="0px"
	 viewBox="0 0 25 25" style="enable-background:new 0 0 25 25;" xml:space="preserve">
<style type="text/css">
	.st0{fill-rule:evenodd;clip-rule:evenodd;fill:none;stroke:#1D262D;stroke-width:1.5;stroke-miterlimit:10;}
</style>
<g>
	<path class="st0" d="M9.5,12.6v11.2c0,0.2,0.1,0.3,0.3,0.3h4.2c0.2,0,0.3-0.1,0.3-0.3V12.4h3c0.2,0,0.3-0.1,0.3-0.3l0.3-3.4
		c0-0.2-0.1-0.3-0.3-0.3h-3.3V5.9c0-0.6,0.5-1,1-1h2.3c0.2,0,0.3-0.1,0.3-0.3V1.2c0-0.2-0.1-0.3-0.3-0.3h-3.9
		c-2.3,0-4.2,1.9-4.2,4.2v3.3H7.4c-0.2,0-0.3,0.1-0.3,0.3v3.4c0,0.2,0.1,0.3,0.3,0.3h2.1V12.6z"/>
</g>
</svg>
