<?xml version="1.0" encoding="utf-8"?>
<!-- Generator: Adobe Illustrator 25.2.1, SVG Export Plug-In . SVG Version: 6.00 Build 0)  -->
<svg version="1.1" id="Слой_1" xmlns="http://www.w3.org/2000/svg" xmlns:xlink="http://www.w3.org/1999/xlink" x="0px" y="0px"
	 viewBox="0 0 25 25" style="enable-background:new 0 0 25 25;" xml:space="preserve">
<style type="text/css">
	.st0{fill:none;stroke:#1D262D;stroke-width:1.5;stroke-miterlimit:10;}
</style>
<g>
	<g>
		<path class="st0" d="M18.7,5.4c-0.8,0-1.4,0.6-1.4,1.4c0,0.8,0.6,1.4,1.4,1.4c0.8,0,1.4-0.6,1.4-1.4C20.1,6,19.5,5.4,18.7,5.4z"/>
	</g>
	<g>
		<path class="st0" d="M12.5,7.2c-2.9,0-5.3,2.4-5.3,5.3c0,2.9,2.4,5.2,5.3,5.2c2.9,0,5.2-2.4,5.2-5.2C17.8,9.6,15.4,7.2,12.5,7.2z"
			/>
	</g>
	<g>
		<path class="st0" d="M17.2,24.3H7.8c-3.9,0-7.1-3.2-7.1-7.1V7.8c0-3.9,3.2-7.1,7.1-7.1h9.4c3.9,0,7.1,3.2,7.1,7.1v9.4
			C24.3,21.1,21.1,24.3,17.2,24.3z"/>
	</g>
</g>
</svg>
