<?xml version="1.0" encoding="utf-8"?>
<!-- Generator: Adobe Illustrator 25.2.1, SVG Export Plug-In . SVG Version: 6.00 Build 0)  -->
<svg version="1.1" id="Слой_1" xmlns="http://www.w3.org/2000/svg" xmlns:xlink="http://www.w3.org/1999/xlink" x="0px" y="0px"
	 viewBox="0 0 25 25" style="enable-background:new 0 0 25 25;" xml:space="preserve">
<style type="text/css">
	.st0{fill:none;stroke:#1D262D;stroke-width:1.5;stroke-miterlimit:10;}
</style>
<g>
	<path class="st0" d="M23.4,5.6c-0.7,0.3-1.7,0.5-2.5,0.6c0.4-0.1,0.8-0.7,1-1c0.3-0.4,0.5-0.9,0.7-1.3c0,0,0-0.1,0-0.1
		c0,0-0.1,0-0.1,0c-0.8,0.4-1.7,0.8-2.6,1c-0.1,0-0.1,0-0.2,0c-0.1-0.1-0.2-0.2-0.2-0.2C18.9,4.3,18.5,4,18,3.8
		c-0.6-0.3-1.3-0.4-2-0.3c-0.6,0-1.3,0.2-1.9,0.5c-0.6,0.3-1.1,0.7-1.5,1.2C12.3,5.8,12,6.4,11.8,7c-0.2,0.6-0.1,1.3,0,1.9
		c0,0.1,0,0.1-0.1,0.1c-3.6-0.5-6.6-1.8-9-4.6c-0.1-0.1-0.2-0.1-0.2,0C1.4,6,1.9,8.6,3.2,9.8c0.2,0.2,0.4,0.3,0.6,0.5
		c-0.1,0-1-0.1-1.7-0.5c-0.1-0.1-0.2,0-0.2,0.1c0,0.2,0,0.3,0,0.5c0.2,1.6,1.3,3.1,2.9,3.7c0.2,0.1,0.4,0.1,0.6,0.2
		c-0.3,0.1-0.7,0.1-1.7,0.1c-0.1,0-0.2,0-0.1,0.2c0.8,2,2.4,2.7,3.6,3c0.2,0,0.3,0,0.5,0.1c0,0,0,0,0,0c-0.4,0.6-1.8,1.1-2.5,1.3
		c-1.2,0.4-2.5,0.6-3.7,0.5c-0.2,0-0.2,0-0.3,0c-0.1,0,0,0.1,0.1,0.1c0.3,0.2,0.5,0.3,0.8,0.5c0.8,0.4,1.6,0.8,2.5,1
		c4.5,1.2,9.5,0.3,12.9-3c2.6-2.6,3.6-6.2,3.6-9.9c0-0.1,0.2-0.2,0.3-0.3c0.7-0.5,1.8-1.1,2.3-1.8C23.5,5.9,24,5.7,24,5.7
		c0,0,0,0,0,0C24,5.6,23.5,5.6,23.4,5.6z"/>
</g>
</svg>
